#!OML:ASF F:\VICON\USERDATA\INSTALL\rory3\rory3.ASF
:FULLY-SPECIFIED
:DEGREES
91
root 0.75523243655266 17.920027094440886 22.36759157262616 2.5759817018604942 -6.925581745590223 -1.837154366680867
lfemur 0.23048372003776052 2.627440872439139 -20.022383578261636
ltibia 85.04305432556103
lfoot 28.35862597727419 -17.158424651515013
ltoes -1.3142333344635464
rfemur -28.0873582439027 -0.3967738406225916 28.30366704105233
rtibia 33.357878748182365
rfoot -6.733962551681257 -2.1700112476992337
rtoes 5.346090562240562
lowerback nan -1.3905156433829804 -0.3875073711267709
upperback 0.27639417962608503 1.2015662724115408 -0.10046415234107209
thorax -7.272547762577911 -0.10183614079596093 2.054944604540434
lowerneck -15.902166929606508 -3.1589998944339985 -2.821045929154806
upperneck 7.943997940364671 -3.298544513891539 3.136373376238877
head 5.065258789446056 -1.3705079212664961 1.250151492553313
lclavicle -1.7041139357025754e-14 1.0336748480325025e-14
lhumerus -50.39931243659641 -1.956127460630305 87.47702120728147
lradius 108.98147599641348
lwrist 34.2232662793823
lhand -25.936186097430504 1.6238800622081595
lfingers nan
lthumb 0.8352407028263689 31.48627482292877
rclavicle -1.400722612195017e-14 8.178923203195882e-15
rhumerus -54.483006113754215 1.065303321550255 -94.39768434003035
rradius 110.12766084673748
rwrist -17.538612560294812
rhand -21.846939928252723 nan
rfingers nan
rthumb 3.9130529243000858 12.250161345049984
92
root 0.7187656116031307 17.849583100390433 22.737079795956824 2.4253215020077254 -7.155266370255437 -2.2432645645451395
lfemur -1.8131972406704158 4.056710172126994 -18.273441330154206
ltibia 88.53598694122525
lfoot 26.55385373981556 -16.200740239087942
ltoes 0.045729219587475
rfemur -27.388053191257818 0.6092576236351999 28.695983613965822
rtibia 35.310086518376195
rfoot -8.53464957786418 -5.288130084634472
rtoes 5.597481942790182
lowerback nan -1.2862580398865249 -0.3685896851335455
upperback 0.30844273382643406 1.3882762327508582 0.07631280533275975
thorax -7.629391696017837 -0.016392378186823597 2.120520103482439
lowerneck -16.109228001740963 -3.2646527295223158 -2.7943617298621906
upperneck 7.985759022277884 -3.3050937149566417 2.9232199582558227
head 5.126344330402161 -1.3996075296870611 1.1831220840441534
lclavicle -5.851971359836015e-14 7.082817782027267e-15
lhumerus -50.59079738585074 -1.945536556482172 87.67656723081264
lradius 107.38458848430678
lwrist 33.91805941805698
lhand -25.614443366065093 3.4220036127406503
lfingers nan
lthumb 1.157747107822292 33.30547813824745
rclavicle -5.505736196520982e-14 4.712254046638697e-15
rhumerus -52.83162639901267 1.9801657482334427 -95.19028041268116
rradius 109.76635394590566
rwrist -15.6520976451915
rhand -24.014163654958878 nan
rfingers nan
rthumb 1.8529452961471664 13.38397987658932
93
root 0.684251072318499 17.777330560185213 23.116834068651304 2.4209892554320445 -7.392818073840735 -3.0017839806590265
lfemur -3.9360825335574994 5.4952524550261845 -16.099961458980182
ltibia 91.7840651568399
lfoot 23.917455484473837 -15.535116988081207
ltoes 0.2153810216443688
rfemur -26.502782787728428 1.5604382230285598 29.671221077881935
rtibia 36.81633533948765
rfoot -10.729041524959792 -7.427312646015165
rtoes 4.174634758578668
lowerback nan -1.1639429203107272 -0.020686333228858045
upperback 0.3816331881545155 1.629309106618869 0.28837134265658193
thorax -7.68018300648233 0.09381732428633971 2.111364619752581
lowerneck -16.54504327866258 -3.366178916312851 -2.7027745866912296
upperneck 8.072456893499657 -3.333729213533051 2.6863905095279903
head 5.242970594369196 -1.4305415132228734 1.0989867712039993
lclavicle -1.0111628390100319e-14 8.782966578823216e-15
lhumerus -50.84148224711705 -2.0325110881567907 87.88961224504568
lradius 105.88351115675471
lwrist 33.827629563607886
lhand -24.622417902187696 5.260789337923692
lfingers nan
lthumb 2.1556377656950874 35.195524065260756
rclavicle -6.80559263344739e-15 6.409707763835203e-15
rhumerus -51.15056572984904 2.7015382571569972 -95.59806777417391
rradius 109.80448900838519
rwrist -16.279931010655368
rhand -22.65780839133499 nan
rfingers nan
rthumb 3.1770572816653546 12.425431045907722
94
root 0.6586076411723147 17.719802819020497 23.275006767609412 2.7320319047764823 -7.4370915125839865 -4.091349848181446
lfemur -6.355314555169464 6.758334507998345 -13.430345944085627
ltibia 94.77717505732886
lfoot 21.102948057839868 -14.957448326616756
ltoes 0.08885324868072964
rfemur -25.502012459177728 2.691217855301569 31.054242566705497
rtibia 37.798608084323575
rfoot -13.105471665285956 -9.102327905508485
rtoes 5.062681950365915
lowerback nan -1.1056540639364334 0.7560790098985735
upperback 0.4601742576960829 1.8600863748562435 0.5574818470574959
thorax -7.333082469070307 0.17785887547668794 1.9982148395944765
lowerneck -17.020158319409852 -3.409597582259967 -2.595485598507192
upperneck 8.151020731742156 -3.3099925718466707 2.5460200649322906
head 5.357527797122119 -1.4336415027354286 1.0336947404516628
lclavicle -5.661157300285404e-14 3.2499119144228895e-15
lhumerus -51.12096401796901 -2.153902822105973 88.18233704387582
lradius 104.454363574953
lwrist 33.91273453972778
lhand -31.534931992088673 9.953806116676898
lfingers nan
lthumb -4.6523287466434065 39.881072704098045
rclavicle -5.2904457890930614e-14 7.253263695847375e-16
rhumerus -49.4297776141531 3.5290928871226033 -96.09953628102633
rradius 110.10338878003844
rwrist -15.725609655612951
rhand -22.710585017593974 nan
rfingers nan
rthumb 3.1796858808444117 11.67493973308465
95
root 0.6426391597319444 17.68188067566695 23.374453771755746 3.0729136711634144 -7.041191191188042 -4.698313030614463
lfemur -9.321135560099052 7.465839656312488 -11.47552626200913
ltibia 97.54659283717285
lfoot 18.383957831747573 -14.491673700667894
ltoes -0.9071059271560369
rfemur -24.71314100033617 3.6861059547463038 31.767461961652657
rtibia 38.51404669027546
rfoot -15.33144637093192 -10.191971871936483
rtoes 7.950193395588926
lowerback nan -1.1783265737769266 1.0637965106356657
upperback 0.50497162690376 1.877633076225035 0.7492648954727524
thorax -6.920250917420924 0.15338253196076607 1.9852058132774342
lowerneck -17.52535409268851 -3.4285043373694526 -2.5357155355351453
upperneck 8.19127476284073 -3.2783304254197563 2.4916246400043414
head 5.458226790715348 -1.4354948135333467 0.9936489782887172
lclavicle -1.6416919196643353e-14 -3.871779329692147e-15
lhumerus -51.382737090387025 -2.180693660459207 88.49903131842893
lradius 103.14603639364213
lwrist 34.02295116202382
lhand -29.808996891136072 6.117303804458208
lfingers nan
lthumb -3.0165008301180425 36.06246651199406
rclavicle -1.2815894854780118e-14 -6.40763545183356e-15
rhumerus -47.80869677479019 4.472978526735171 -96.4540140223314
rradius 110.5872441099833
rwrist -15.460805763217827
rhand -22.673039398751524 nan
rfingers nan
rthumb 3.2656859389645696 11.656575210128226
96
root 0.6344032539044546 17.656715667483887 23.37218237815445 3.2103279404195035 -6.237558314263365 -4.673373464139702
lfemur -12.596493846306213 7.684487760436555 -10.597868346338155
ltibia 99.83076202168606
lfoot 15.830021583252842 -14.200124467035028
ltoes -1.1074882869327798
rfemur -23.958693006702948 3.6051196233558085 31.97216322707701
rtibia 38.81486901970344
rfoot -16.22919075952275 -12.508637460422342
rtoes 3.709121821210151
lowerback nan -1.3428635157240758 0.8725300526346753
upperback 0.5208491175861604 1.7194884612393937 0.8110962629223637
thorax -6.527275273292567 0.040214617330064595 2.0354314228883386
lowerneck -17.86927192707078 -3.512532926738385 -2.511830816479905
upperneck 8.121361071074706 -3.34519650245539 2.4554805570494955
head 5.50099580994506 -1.4818529872587587 0.959179286186728
lclavicle 2.9823941550161448e-15 2.5085103463305657e-14
lhumerus -51.8642672959557 -2.266827662675218 88.68744699380557
lradius 102.06799987738316
lwrist 34.036881808451746
lhand -24.684836105273778 6.397335622175122
lfingers nan
lthumb 1.897423975971359 36.41217223638365
rclavicle 6.295664836564361e-15 2.2348631320227357e-14
rhumerus -46.2494453747549 5.428353603826294 -96.73973855577147
rradius 110.91531365566046
rwrist -15.226309619877675
rhand -22.62144565301859 nan
rfingers nan
rthumb 3.3318339436349698 11.67964798989825
97
root 0.6324912468702435 17.637818226173845 23.7576981491828 3.22379209433389 -5.411850163804543 -4.742929366825011
lfemur -15.69533807066497 7.8243008304162665 -9.735772514441948
ltibia 101.77757580816527
lfoot 13.869852788744621 -13.31679969004008
ltoes 3.992541776569187
rfemur -22.934840468296393 3.2394820259130706 32.3665003687228
rtibia 38.84221452182014
rfoot -16.880152745256787 -14.902585265276448
rtoes -0.9902809228238292
lowerback nan -1.552977643616411 0.8554557007258285
upperback 0.45072016829624884 1.549247387696621 0.8708435373081429
thorax -6.607931199180433 -0.08175734743777974 2.0285562876385552
lowerneck -17.760476636946926 -3.626831595898893 -2.5001700327827425
upperneck 7.726915234277653 -3.4452270651640085 2.5233614199941274
head 5.359956736837987 -1.5485477639660852 0.9512074418177086
lclavicle 2.98187882193297e-15 -4.006935080711696e-15
lhumerus -52.62768157014674 -2.386616225491517 88.81899787629669
lradius 101.19885995978267
lwrist 33.78179121766002
lhand -26.494012133829287 3.830095174115448
lfingers nan
lthumb 0.2082439132977194 33.875655437343134
rclavicle 6.461086432439059e-15 -6.414526936679315e-15
rhumerus -44.77789751160921 6.405953616116895 -97.05900861128586
rradius 111.13964929454788
rwrist -14.940047536351502
rhand -22.896107776526335 nan
rfingers nan
rthumb 3.0869057092850047 11.942384867382454
98
root 0.5635109742115808 17.60792459823062 24.02970608327069 3.1775609668066025 -5.762325817448895 -5.849437131530999
lfemur -17.809304859073915 9.62940173933538 -6.995967831050786
ltibia 103.7919218297753
lfoot 11.61196824256579 -13.872108910621478
ltoes 6.509976920308439
rfemur -21.566942519218188 4.3640750978020915 34.167247065507354
rtibia 38.534353838078175
rfoot -17.626934665192692 -16.278958748174905
rtoes -2.1669132022660493
lowerback nan -1.440286748512491 1.1482047309795531
upperback 0.40970461656620916 1.7879295200924172 1.1966383737321806
thorax -7.160169201530089 0.012167965562835836 2.0493900082040306
lowerneck -17.729526516852268 -3.6953331008503123 -2.4440400392298245
upperneck 7.453458765558317 -3.5291136608293767 2.6929308924003985
head 5.26268871331674 -1.6043362128613126 0.9608941787571101
lclavicle -3.0912543609545236e-14 -4.272806255251605e-15
lhumerus -53.33973582526922 -2.5743582585770275 88.84265996213017
lradius 100.48214169462113
lwrist 33.38482280580655
lhand -27.277600239117454 2.787246440476236
lfingers nan
lthumb -0.554865268676733 32.77252483015464
rclavicle -2.692582386067247e-14 -6.576250119970496e-15
rhumerus -43.50059369115249 7.3002127181440395 -97.39589968407901
rradius 111.54020067822415
rwrist -14.626437215101646
rhand -23.08045656995416 nan
rfingers nan
rthumb 2.9250695602225694 12.651887021546646
